<mxfile host="app.diagrams.net" modified="2021-02-21T02:49:12.530Z" agent="5.0 (Windows NT 6.1; Win64; x64) AppleWebKit/537.36 (KHTML, like Gecko) Chrome/88.0.4324.182 Safari/537.36" etag="2PcleSaP__rIdBv6PFVq" version="14.1.1" type="github">
  <diagram id="CNkuEoaHjQG0uHpoK-eG" name="第 1 页">
    <mxGraphModel dx="1102" dy="525" grid="1" gridSize="10" guides="1" tooltips="1" connect="1" arrows="1" fold="1" page="1" pageScale="1" pageWidth="827" pageHeight="1169" math="0" shadow="0">
      <root>
        <mxCell id="0" />
        <mxCell id="1" parent="0" />
        <mxCell id="I32WazByGbEbnwIcAzC7-15" value="" style="rounded=1;whiteSpace=wrap;html=1;fontFamily=Times New Roman;fontSize=16;align=left;fillColor=#d5e8d4;strokeColor=#82b366;" vertex="1" parent="1">
          <mxGeometry x="224" y="530" width="380" height="100" as="geometry" />
        </mxCell>
        <mxCell id="I32WazByGbEbnwIcAzC7-13" value="" style="rounded=1;whiteSpace=wrap;html=1;fontFamily=Times New Roman;fontSize=16;align=left;fillColor=#dae8fc;strokeColor=#6c8ebf;" vertex="1" parent="1">
          <mxGeometry x="230" y="250" width="380" height="270" as="geometry" />
        </mxCell>
        <mxCell id="I32WazByGbEbnwIcAzC7-1" value="客户端" style="aspect=fixed;perimeter=ellipsePerimeter;html=1;align=center;shadow=0;dashed=0;spacingTop=3;image;image=img/lib/active_directory/home_page.svg;fontSize=16;" vertex="1" parent="1">
          <mxGeometry x="230" y="120" width="88.89" height="80" as="geometry" />
        </mxCell>
        <mxCell id="I32WazByGbEbnwIcAzC7-2" value="服务器" style="aspect=fixed;perimeter=ellipsePerimeter;html=1;align=center;shadow=0;dashed=0;spacingTop=3;image;image=img/lib/active_directory/web_server.svg;fontSize=16;" vertex="1" parent="1">
          <mxGeometry x="510" y="110" width="72" height="90" as="geometry" />
        </mxCell>
        <mxCell id="I32WazByGbEbnwIcAzC7-3" value="" style="endArrow=none;html=1;fontSize=16;" edge="1" parent="1">
          <mxGeometry width="50" height="50" relative="1" as="geometry">
            <mxPoint x="280" y="640" as="sourcePoint" />
            <mxPoint x="280" y="240" as="targetPoint" />
          </mxGeometry>
        </mxCell>
        <mxCell id="I32WazByGbEbnwIcAzC7-4" value="" style="endArrow=none;html=1;fontSize=16;" edge="1" parent="1">
          <mxGeometry width="50" height="50" relative="1" as="geometry">
            <mxPoint x="546" y="640" as="sourcePoint" />
            <mxPoint x="545.5" y="240" as="targetPoint" />
          </mxGeometry>
        </mxCell>
        <mxCell id="I32WazByGbEbnwIcAzC7-5" value="GET /test.html" style="endArrow=classic;html=1;fontSize=16;" edge="1" parent="1">
          <mxGeometry width="50" height="50" relative="1" as="geometry">
            <mxPoint x="280" y="260" as="sourcePoint" />
            <mxPoint x="540" y="310" as="targetPoint" />
          </mxGeometry>
        </mxCell>
        <mxCell id="I32WazByGbEbnwIcAzC7-6" value="PUSH_PROMISE 帧：GET /a.css" style="endArrow=classic;html=1;fontSize=16;" edge="1" parent="1">
          <mxGeometry width="50" height="50" relative="1" as="geometry">
            <mxPoint x="539" y="420" as="sourcePoint" />
            <mxPoint x="289" y="490" as="targetPoint" />
          </mxGeometry>
        </mxCell>
        <mxCell id="I32WazByGbEbnwIcAzC7-8" value="test.html 文件" style="endArrow=classic;html=1;fontSize=16;" edge="1" parent="1">
          <mxGeometry width="50" height="50" relative="1" as="geometry">
            <mxPoint x="539" y="340" as="sourcePoint" />
            <mxPoint x="289" y="410" as="targetPoint" />
          </mxGeometry>
        </mxCell>
        <mxCell id="I32WazByGbEbnwIcAzC7-9" value="a.css 文件" style="endArrow=classic;html=1;fontSize=16;" edge="1" parent="1">
          <mxGeometry width="50" height="50" relative="1" as="geometry">
            <mxPoint x="540" y="540" as="sourcePoint" />
            <mxPoint x="280" y="610" as="targetPoint" />
          </mxGeometry>
        </mxCell>
        <mxCell id="I32WazByGbEbnwIcAzC7-14" value="Stream 1" style="text;html=1;align=center;verticalAlign=middle;resizable=0;points=[];autosize=1;fontSize=16;fontFamily=Times New Roman;fontStyle=1" vertex="1" parent="1">
          <mxGeometry x="374" y="250" width="80" height="20" as="geometry" />
        </mxCell>
        <mxCell id="I32WazByGbEbnwIcAzC7-16" value="Stream 2" style="text;html=1;align=center;verticalAlign=middle;resizable=0;points=[];autosize=1;fontSize=16;fontFamily=Times New Roman;fontStyle=1" vertex="1" parent="1">
          <mxGeometry x="380" y="530" width="80" height="20" as="geometry" />
        </mxCell>
      </root>
    </mxGraphModel>
  </diagram>
</mxfile>
